<svg width="73" height="72" viewBox="0 0 73 72" fill="none" xmlns="http://www.w3.org/2000/svg">
<path d="M30.8216 14.0627C22.8606 13.3077 15.7936 18.9447 15.0646 26.6312C14.3356 34.3177 20.217 41.1827 28.1781 41.9377C36.1391 42.6927 43.2061 37.0557 43.9351 29.3692C44.664 21.6827 38.7826 14.8177 30.8216 14.0627ZM28.8389 34.9689C24.8584 34.5914 21.9177 31.159 22.2822 27.3157C22.6467 23.4725 26.1802 20.654 30.1607 21.0315C34.1412 21.409 37.0819 24.8414 36.7174 28.6847C36.353 32.5279 32.8195 35.3464 28.8389 34.9689Z" fill="white"/>
<path d="M27.4338 70.3403C28.0367 70.7693 28.7591 71 29.5 71C30.2409 71 30.9633 70.7693 31.5662 70.3403C32.6492 69.577 58.103 51.2624 57.9997 28.4002C57.9997 12.7411 45.214 0 29.5 0C13.786 0 1.00031 12.7411 1.00031 28.3825C0.897002 51.2624 26.3508 69.577 27.4338 70.3403ZM29.5 7.10006C41.2882 7.10006 50.8748 16.6532 50.8748 28.418C50.9496 44.173 35.2427 58.3199 29.5 62.9598C23.7609 58.3163 8.05042 44.1659 8.12524 28.4002C8.12524 16.6532 17.7118 7.10006 29.5 7.10006Z" fill="white"/>
</svg>
